{
  "accessors": [
    {
      "bufferView": 2,
      "componentType": 5126,
      "count": 642,
      "max": [
        1.0706000328063965,
        5.466599941253662,
        7.845799922943115
      ],
      "min": [
        -1.0699000358581543,
        5.004300117492676,
        7.17710018157959
      ],
      "type": "VEC3"
    },
    {
      "bufferView": 2,
      "byteOffset": 7704,
      "componentType": 5126,
      "count": 642,
      "max": [
        1.0,
        1.0,
        1.0
      ],
      "min": [
        -1.0,
        -0.2904134690761566,
        -1.0
      ],
      "type": "VEC3"
    },
    {
      "bufferView": 1,
      "componentType": 5126,
      "count": 642,
      "max": [
        0.6047999858856201,
        0.1680999994277954
      ],
      "min": [
        0.5192999839782715,
        0.16249999403953552
      ],
      "type": "VEC2"
    },
    {
      "bufferView": 0,
      "componentType": 5125,
      "count": 3648,
      "type": "SCALAR"
    },
    {
      "bufferView": 2,
      "byteOffset": 15408,
      "componentType": 5126,
      "count": 1013,
      "max": [
        2.454400062561035,
        6.1020002365112305,
        10.79259967803955
      ],
      "min": [
        -2.454400062561035,
        -4.711100101470947,
        -0.07069999724626541
      ],
      "type": "VEC3"
    },
    {
      "bufferView": 2,
      "byteOffset": 27564,
      "componentType": 5126,
      "count": 1013,
      "max": [
        0.9998674392700195,
        0.9999363422393799,
        0.9978008270263672
      ],
      "min": [
        -0.9998688697814941,
        -0.9955754280090332,
        -0.9999783039093018
      ],
      "type": "VEC3"
    },
    {
      "bufferView": 3,
      "componentType": 5126,
      "count": 1013,
      "max": [
        1.0,
        0.9994211196899414,
        0.857085645198822,
        -1.0
      ],
      "min": [
        -0.9998769760131836,
        -0.9999523758888245,
        -0.9965769052505493,
        -1.0
      ],
      "type": "VEC4"
    },
    {
      "bufferView": 1,
      "byteOffset": 5136,
      "componentType": 5126,
      "count": 1013,
      "max": [
        0.9914000034332275,
        0.9977999925613403
      ],
      "min": [
        0.18000000715255737,
        0.025800000876188278
      ],
      "type": "VEC2"
    },
    {
      "bufferView": 0,
      "byteOffset": 14592,
      "componentType": 5125,
      "count": 3840,
      "type": "SCALAR"
    },
    {
      "bufferView": 2,
      "byteOffset": 39720,
      "componentType": 5126,
      "count": 7353,
      "max": [
        2.6695001125335693,
        6.094900131225586,
        10.79259967803955
      ],
      "min": [
        -2.6695001125335693,
        -5.8694000244140625,
        -0.07590000331401825
      ],
      "type": "VEC3"
    },
    {
      "bufferView": 2,
      "byteOffset": 127956,
      "componentType": 5126,
      "count": 7353,
      "max": [
        0.9998674392700195,
        0.9999960660934448,
        0.9999997615814209
      ],
      "min": [
        -0.9998688697814941,
        -0.9998713731765747,
        -0.9999102354049683
      ],
      "type": "VEC3"
    },
    {
      "bufferView": 3,
      "byteOffset": 16208,
      "componentType": 5126,
      "count": 7353,
      "max": [
        1.0,
        0.9998939633369446,
        0.9997190237045288,
        -1.0
      ],
      "min": [
        -1.0,
        -0.9987730383872986,
        -0.9997190237045288,
        -1.0
      ],
      "type": "VEC4"
    },
    {
      "bufferView": 1,
      "byteOffset": 13240,
      "componentType": 5126,
      "count": 7353,
      "max": [
        0.9980000257492065,
        0.9980000257492065
      ],
      "min": [
        0.0020000000949949026,
        0.007199999876320362
      ],
      "type": "VEC2"
    },
    {
      "bufferView": 0,
      "byteOffset": 29952,
      "componentType": 5125,
      "count": 39102,
      "type": "SCALAR"
    }
  ],
  "asset": {
    "extras": {
      "author": "FainoDS (https://sketchfab.com/doinspire)",
      "license": "CC-BY-4.0 (http://creativecommons.org/licenses/by/4.0/)",
      "source": "https://sketchfab.com/3d-models/kitten-4ae3704cd65b423ab994545988d4db1a",
      "title": "Kitten"
    },
    "generator": "Sketchfab-12.68.0",
    "version": "2.0"
  },
  "bufferViews": [
    {
      "buffer": 0,
      "byteLength": 186360,
      "name": "floatBufferViews",
      "target": 34963
    },
    {
      "buffer": 0,
      "byteLength": 72064,
      "byteOffset": 186360,
      "byteStride": 8,
      "name": "floatBufferViews",
      "target": 34962
    },
    {
      "buffer": 0,
      "byteLength": 216192,
      "byteOffset": 258424,
      "byteStride": 12,
      "name": "floatBufferViews",
      "target": 34962
    },
    {
      "buffer": 0,
      "byteLength": 133856,
      "byteOffset": 474616,
      "byteStride": 16,
      "name": "floatBufferViews",
      "target": 34962
    }
  ],
  "buffers": [
    {
      "byteLength": 608472,
      "uri": "scene.bin"
    }
  ],
  "images": [
    {
      "uri": "textures/body_baseColor.png"
    },
    {
      "uri": "textures/body_normal.png"
    }
  ],
  "materials": [
    {
      "doubleSided": true,
      "name": "body",
      "normalTexture": {
        "index": 1
      },
      "pbrMetallicRoughness": {
        "baseColorTexture": {
          "index": 0
        },
        "metallicFactor": 0.0,
        "roughnessFactor": 0.6
      }
    },
    {
      "doubleSided": true,
      "name": "material",
      "pbrMetallicRoughness": {
        "baseColorTexture": {
          "index": 0
        },
        "metallicFactor": 0.0,
        "roughnessFactor": 0.1297637195
      }
    }
  ],
  "meshes": [
    {
      "name": "Object_0",
      "primitives": [
        {
          "attributes": {
            "NORMAL": 1,
            "POSITION": 0,
            "TEXCOORD_0": 2
          },
          "indices": 3,
          "material": 1,
          "mode": 4
        }
      ]
    },
    {
      "name": "Object_1",
      "primitives": [
        {
          "attributes": {
            "NORMAL": 5,
            "POSITION": 4,
            "TANGENT": 6,
            "TEXCOORD_0": 7
          },
          "indices": 8,
          "material": 0,
          "mode": 4
        }
      ]
    },
    {
      "name": "Object_2",
      "primitives": [
        {
          "attributes": {
            "NORMAL": 10,
            "POSITION": 9,
            "TANGENT": 11,
            "TEXCOORD_0": 12
          },
          "indices": 13,
          "material": 0,
          "mode": 4
        }
      ]
    }
  ],
  "nodes": [
    {
      "children": [
        1
      ],
      "matrix": [
        1.0,
        0.0,
        0.0,
        0.0,
        0.0,
        2.220446049250313e-16,
        -1.0,
        0.0,
        0.0,
        1.0,
        2.220446049250313e-16,
        0.0,
        0.0,
        0.0,
        0.0,
        1.0
      ],
      "name": "Sketchfab_model"
    },
    {
      "children": [
        2,
        3,
        4
      ],
      "name": "Kitten.obj.cleaner.materialmerger.gles"
    },
    {
      "mesh": 0,
      "name": "Object_2"
    },
    {
      "mesh": 1,
      "name": "Object_3"
    },
    {
      "mesh": 2,
      "name": "Object_4"
    }
  ],
  "samplers": [
    {
      "magFilter": 9729,
      "minFilter": 9987,
      "wrapS": 10497,
      "wrapT": 10497
    }
  ],
  "scene": 0,
  "scenes": [
    {
      "name": "Sketchfab_Scene",
      "nodes": [
        0
      ]
    }
  ],
  "textures": [
    {
      "sampler": 0,
      "source": 0
    },
    {
      "sampler": 0,
      "source": 1
    }
  ]
}
