{
	"asset":{
		"generator":"Khronos glTF Blender I/O v4.2.57",
		"version":"2.0"
	},
	"scene":0,
	"scenes":[
		{
			"name":"Scene",
			"nodes":[
				42
			]
		}
	],
	"nodes":[
		{
			"name":"head0_end",
			"rotation":[
				6.028058692209015e-07,
				1.0035002162567253e-07,
				-2.8172511434831904e-08,
				1
			],
			"scale":[
				0.9999999403953552,
				0.9999998807907104,
				0.9999999403953552
			],
			"translation":[
				-2.384185791015625e-07,
				15.464463233947754,
				8.717179298400879e-06
			]
		},
		{
			"children":[
				0
			],
			"name":"head0",
			"rotation":[
				0.7415955662727356,
				0.009762679226696491,
				-0.00740624126046896,
				0.6707353591918945
			],
			"scale":[
				0.9999998807907104,
				0.9999999403953552,
				0.9999998211860657
			],
			"translation":[
				8.940696716308594e-08,
				5.057234287261963,
				-8.10530036687851e-06
			]
		},
		{
			"children":[
				1
			],
			"name":"neck1",
			"rotation":[
				0.09347113221883774,
				0.0010572889586910605,
				-0.0014947665622457862,
				0.9956203103065491
			],
			"scale":[
				0.9999998807907104,
				0.9999998807907104,
				0.9999998807907104
			],
			"translation":[
				-1.862645149230957e-07,
				14.250720977783203,
				-2.4707987904548645e-06
			]
		},
		{
			"children":[
				2
			],
			"name":"neck0",
			"rotation":[
				-0.7332608103752136,
				-0.008040481247007847,
				0.012939363718032837,
				0.6797768473625183
			],
			"scale":[
				0.9999999403953552,
				0.9999999403953552,
				0.9999998211860657
			],
			"translation":[
				-1.7881393432617188e-07,
				9.342745780944824,
				-2.5443732738494873e-06
			]
		},
		{
			"name":"leg_front_right_toe_end",
			"rotation":[
				-1.862321075130069e-09,
				-4.642643602892349e-07,
				-6.854536422906676e-07,
				1
			],
			"translation":[
				-1.4108663890510798e-06,
				2.999999523162842,
				-2.0635031887650257e-06
			]
		},
		{
			"children":[
				4
			],
			"name":"leg_front_right_toe",
			"rotation":[
				-0.3273085057735443,
				0.6323826909065247,
				0.6323826313018799,
				0.3050468862056732
			],
			"scale":[
				0.9999998807907104,
				0.9999999403953552,
				1
			],
			"translation":[
				-1.7285346984863281e-06,
				7.103522777557373,
				1.430511474609375e-06
			]
		},
		{
			"children":[
				5
			],
			"name":"leg_front_right_ankle",
			"rotation":[
				0.137569859623909,
				-0.8262718915939331,
				-0.24606408178806305,
				0.48764923214912415
			],
			"scale":[
				0.9999999403953552,
				0.9999998807907104,
				0.9999999403953552
			],
			"translation":[
				2.1457672119140625e-06,
				6.470890045166016,
				-3.2186508178710938e-06
			]
		},
		{
			"children":[
				6
			],
			"name":"leg_front_right_bot0",
			"rotation":[
				5.340323738778352e-08,
				0.9591692090034485,
				0.273898184299469,
				0.07052786648273468
			],
			"scale":[
				0.9999998807907104,
				1,
				1.0000001192092896
			],
			"translation":[
				-1.0848052625078708e-06,
				14.220001220703125,
				8.744783031033876e-07
			]
		},
		{
			"children":[
				7
			],
			"name":"leg_front_right_top1",
			"rotation":[
				-1.1880233330430201e-07,
				0.5146478414535522,
				0.2654258906841278,
				0.8152832388877869
			],
			"scale":[
				1,
				0.9999998211860657,
				0.9999998211860657
			],
			"translation":[
				7.152557373046875e-07,
				18.48451805114746,
				-4.5299530029296875e-06
			]
		},
		{
			"children":[
				8
			],
			"name":"leg_front_right_top0",
			"rotation":[
				0.0378311388194561,
				0.7091610431671143,
				0.42567509412765503,
				0.560767412185669
			],
			"scale":[
				1,
				1.0000001192092896,
				1
			],
			"translation":[
				4.6193599700927734e-07,
				-3.2656826078891754e-06,
				-4.881061613559723e-06
			]
		},
		{
			"name":"leg_front_left_toe_end",
			"rotation":[
				-5.122082313846477e-09,
				2.6170164346694946e-07,
				2.3841856489070778e-07,
				1
			],
			"translation":[
				-3.3360629458911717e-07,
				3.000001907348633,
				-8.654455996293109e-07
			]
		},
		{
			"children":[
				10
			],
			"name":"leg_front_left_toe",
			"rotation":[
				-0.32731762528419495,
				-0.632378101348877,
				-0.6323781609535217,
				0.30505579710006714
			],
			"scale":[
				1,
				0.9999999403953552,
				1
			],
			"translation":[
				2.086162567138672e-06,
				7.103518486022949,
				-2.384185791015625e-07
			]
		},
		{
			"children":[
				11
			],
			"name":"leg_front_left_ankle",
			"rotation":[
				0.1375737488269806,
				0.8262650370597839,
				0.24606284499168396,
				0.48766034841537476
			],
			"scale":[
				1.0000001192092896,
				1.0000001192092896,
				1
			],
			"translation":[
				-1.3709068298339844e-06,
				6.470893859863281,
				-4.291534423828125e-06
			]
		},
		{
			"children":[
				12
			],
			"name":"leg_front_left_bot0",
			"rotation":[
				-8.156131059422478e-08,
				-0.9591691493988037,
				-0.2738986015319824,
				0.07052738219499588
			],
			"scale":[
				1,
				0.9999998211860657,
				1.0000001192092896
			],
			"translation":[
				1.9103292743238853e-06,
				14.219999313354492,
				-6.2601980062027e-06
			]
		},
		{
			"children":[
				13
			],
			"name":"leg_front_left_top1",
			"rotation":[
				-1.3056479986062186e-07,
				-0.5451950430870056,
				-0.2540123760700226,
				0.7988992929458618
			],
			"scale":[
				1,
				0.9999999403953552,
				0.9999998211860657
			],
			"translation":[
				4.76837158203125e-07,
				18.232860565185547,
				-9.5367431640625e-07
			]
		},
		{
			"children":[
				14
			],
			"name":"leg_front_left_top0",
			"rotation":[
				0.06335211545228958,
				-0.673112690448761,
				-0.40644320845603943,
				0.6145809888839722
			],
			"scale":[
				0.9999999403953552,
				1,
				0.9999997615814209
			],
			"translation":[
				4.172325134277344e-07,
				-4.70038503408432e-06,
				-1.7741695046424866e-06
			]
		},
		{
			"children":[
				3,
				9,
				15
			],
			"name":"body_top1",
			"rotation":[
				0.535651683807373,
				0.0022524285595864058,
				-0.011630544438958168,
				0.8443559408187866
			],
			"scale":[
				0.9999999403953552,
				1,
				1.0000001192092896
			],
			"translation":[
				7.450580596923828e-09,
				10.37501335144043,
				2.7192290872335434e-06
			]
		},
		{
			"children":[
				16
			],
			"name":"body_top0",
			"rotation":[
				-0.249089777469635,
				0.0032196969259530306,
				0.013940025120973587,
				0.9683747291564941
			],
			"scale":[
				1,
				0.9999998807907104,
				0.9999999403953552
			],
			"translation":[
				2.3469328880310059e-07,
				7.377018451690674,
				2.282671630382538e-06
			]
		},
		{
			"name":"tail5_end",
			"rotation":[
				-2.9249347388571323e-09,
				-6.984918754504577e-10,
				7.014023140072823e-08,
				1
			],
			"scale":[
				1,
				1,
				1.0000001192092896
			],
			"translation":[
				3.5762786865234375e-07,
				3.2962310314178467,
				-8.901581168174744e-06
			]
		},
		{
			"children":[
				18
			],
			"name":"tail5",
			"rotation":[
				-0.06502287089824677,
				0.0009506050846539438,
				0.01344116311520338,
				0.9977928400039673
			],
			"translation":[
				2.8312206268310547e-07,
				1.4800808429718018,
				-5.390960723161697e-06
			]
		},
		{
			"children":[
				19
			],
			"name":"tail4",
			"rotation":[
				-3.6400526823854307e-06,
				2.2817403078079224e-08,
				6.921618478372693e-08,
				1
			],
			"scale":[
				1,
				0.9999998807907104,
				1
			],
			"translation":[
				-2.60770320892334e-07,
				1.538655400276184,
				-4.49037179350853e-06
			]
		},
		{
			"children":[
				20
			],
			"name":"tail3",
			"rotation":[
				0.30560582876205444,
				-0.007446692790836096,
				-0.0034031602554023266,
				0.9521229267120361
			],
			"scale":[
				1,
				1,
				1.0000001192092896
			],
			"translation":[
				1.4901161193847656e-07,
				2.532547950744629,
				-3.2633543014526367e-06
			]
		},
		{
			"children":[
				21
			],
			"name":"tail2",
			"rotation":[
				-1.935258978846832e-06,
				1.0197981481496754e-07,
				-9.522772614900532e-08,
				1
			],
			"scale":[
				1,
				1.0000001192092896,
				1.0000001192092896
			],
			"translation":[
				2.980232238769531e-07,
				2.4689877033233643,
				4.936009645462036e-06
			]
		},
		{
			"children":[
				22
			],
			"name":"tail1",
			"rotation":[
				-0.1106841042637825,
				-0.0017599959392100573,
				0.013052819296717644,
				0.9937683939933777
			],
			"scale":[
				1,
				1,
				0.9999999403953552
			],
			"translation":[
				0,
				1.8801863193511963,
				-7.292255759239197e-07
			]
		},
		{
			"children":[
				23
			],
			"name":"tail0",
			"rotation":[
				0.4010855555534363,
				0.004882944747805595,
				-0.041435662657022476,
				0.915090024471283
			],
			"scale":[
				1.0000001192092896,
				1,
				1.0000001192092896
			],
			"translation":[
				0,
				8.838399887084961,
				-4.76837158203125e-07
			]
		},
		{
			"children":[
				24
			],
			"name":"pelvis",
			"rotation":[
				0.11797589063644409,
				-0.027660243213176727,
				0.02507075108587742,
				0.9923145771026611
			],
			"scale":[
				1,
				0.9999999403953552,
				1
			],
			"translation":[
				-1.043081283569336e-07,
				10.503286361694336,
				2.1997839212417603e-06
			]
		},
		{
			"name":"leg_hind_left_toe_end",
			"rotation":[
				-9.53677954385057e-07,
				8.270176294900011e-07,
				8.004011407651557e-13,
				1
			],
			"translation":[
				1.1497191962916986e-06,
				3.0000085830688477,
				2.9270086088217795e-07
			]
		},
		{
			"children":[
				26
			],
			"name":"leg_hind_left_toe",
			"rotation":[
				-0.8044437766075134,
				-0.05604718253016472,
				-0.05604542791843414,
				0.5887171030044556
			],
			"scale":[
				1,
				0.9999998807907104,
				0.9999998807907104
			],
			"translation":[
				-5.304813385009766e-06,
				14.473773956298828,
				1.9073486328125e-06
			]
		},
		{
			"children":[
				27
			],
			"name":"leg_hind_left_ankle",
			"rotation":[
				-0.501480221748352,
				0.0548168420791626,
				-0.048837073147296906,
				0.8620485663414001
			],
			"translation":[
				-1.4454126358032227e-06,
				5.776255130767822,
				-1.4081597328186035e-06
			]
		},
		{
			"children":[
				28
			],
			"name":"leg_hind_left_bot0",
			"rotation":[
				2.69666088570375e-07,
				-0.7770631313323975,
				0.6293851137161255,
				0.006876673549413681
			],
			"scale":[
				0.9999998807907104,
				0.9999994039535522,
				0.9999999403953552
			],
			"translation":[
				-3.869448391924379e-06,
				12.220155715942383,
				-2.28653561862302e-06
			]
		},
		{
			"children":[
				29
			],
			"name":"leg_hind_left_top1",
			"rotation":[
				4.2003100020338024e-07,
				-0.20467278361320496,
				-0.4141286313533783,
				0.8869084715843201
			],
			"scale":[
				0.9999999403953552,
				1.0000001192092896,
				1
			],
			"translation":[
				1.6689300537109375e-06,
				13.272747039794922,
				-9.98377799987793e-06
			]
		},
		{
			"children":[
				30
			],
			"name":"leg_hind_left_top0",
			"rotation":[
				0.4369083642959595,
				0.6211373805999756,
				-0.6364666223526001,
				0.1349429488182068
			],
			"scale":[
				0.9999998807907104,
				1.0000004768371582,
				1.0000001192092896
			],
			"translation":[
				-2.384185791015625e-07,
				10.503286361694336,
				1.2489035725593567e-06
			]
		},
		{
			"name":"leg_hind_right_toe_end",
			"rotation":[
				1.4903029921242705e-08,
				-8.177075869753025e-07,
				-4.842875682697922e-07,
				1
			],
			"translation":[
				5.606434569926932e-07,
				2.9999947547912598,
				4.508053734753048e-07
			]
		},
		{
			"children":[
				32
			],
			"name":"leg_hind_right_toe",
			"rotation":[
				-0.8044443130493164,
				0.05604788288474083,
				0.05604551360011101,
				0.5887162685394287
			],
			"translation":[
				1.2516975402832031e-06,
				14.473767280578613,
				-7.867813110351562e-06
			]
		},
		{
			"children":[
				33
			],
			"name":"leg_hind_right_ankle",
			"rotation":[
				-0.501480221748352,
				-0.05481712892651558,
				0.04883750528097153,
				0.8620485067367554
			],
			"scale":[
				0.9999999403953552,
				0.9999999403953552,
				1.0000001192092896
			],
			"translation":[
				-3.978610038757324e-06,
				5.776246547698975,
				-1.087784767150879e-06
			]
		},
		{
			"children":[
				34
			],
			"name":"leg_hind_right_bot0",
			"rotation":[
				-4.041994543513283e-07,
				0.7770631909370422,
				-0.6293849945068359,
				0.006876767612993717
			],
			"scale":[
				0.9999998807907104,
				1.0000004768371582,
				1.0000001192092896
			],
			"translation":[
				-2.0027312075399095e-06,
				12.220158576965332,
				-5.572242116613779e-06
			]
		},
		{
			"children":[
				35
			],
			"name":"leg_hind_right_top1",
			"rotation":[
				5.683303925252403e-07,
				0.229233056306839,
				0.3908514380455017,
				0.891452431678772
			],
			"scale":[
				1.0000001192092896,
				1.0000001192092896,
				1
			],
			"translation":[
				-3.337860107421875e-06,
				12.556486129760742,
				-1.2159347534179688e-05
			]
		},
		{
			"children":[
				36
			],
			"name":"leg_hind_right_top0",
			"rotation":[
				0.4379495680332184,
				-0.6316125392913818,
				0.6261944770812988,
				0.1309434473514557
			],
			"scale":[
				1.0000001192092896,
				1.0000003576278687,
				1.0000001192092896
			],
			"translation":[
				7.897615432739258e-07,
				10.503286361694336,
				2.1783635020256042e-06
			]
		},
		{
			"children":[
				25,
				31,
				37
			],
			"name":"body_bot",
			"rotation":[
				-0.9967812299728394,
				-0.007983846589922905,
				0.031780581921339035,
				0.07316779345273972
			],
			"scale":[
				0.9999999403953552,
				0.9999999403953552,
				0.9999960660934448
			],
			"translation":[
				4.172325134277344e-07,
				2.3292377591133118e-06,
				7.725320756435394e-06
			]
		},
		{
			"children":[
				17,
				38
			],
			"name":"body",
			"rotation":[
				0.6558470129966736,
				-1.6789205403711094e-07,
				-0.026952797546982765,
				0.7544125318527222
			],
			"scale":[
				1,
				0.9999999403953552,
				1
			],
			"translation":[
				-0.22751852869987488,
				36.83940124511719,
				-9.952339172363281
			]
		},
		{
			"children":[
				39
			],
			"name":"root",
			"rotation":[
				-0.7071031928062439,
				0,
				0,
				0.7071103453636169
			],
			"translation":[
				-0.022481437772512436,
				0.0019722001161426306,
				31.079496383666992
			]
		},
		{
			"mesh":0,
			"name":"model",
			"skin":0
		},
		{
			"children":[
				41,
				40
			],
			"name":"rig",
			"rotation":[
				0.70710688829422,
				0,
				0,
				0.7071066498756409
			]
		}
	],
	"materials":[
		{
			"doubleSided":true,
			"name":"tripo_material_162a6a72-3816-42f3-9786-dc965c9640d4.001",
			"normalTexture":{
				"index":0
			},
			"pbrMetallicRoughness":{
				"baseColorTexture":{
					"index":1
				},
				"metallicFactor":0,
				"roughnessFactor":0.5
			}
		}
	],
	"meshes":[
		{
			"name":"model",
			"primitives":[
				{
					"attributes":{
						"POSITION":0,
						"NORMAL":1,
						"TEXCOORD_0":2,
						"JOINTS_0":3,
						"WEIGHTS_0":4
					},
					"indices":5,
					"material":0
				}
			]
		}
	],
	"textures":[
		{
			"sampler":0,
			"source":0
		},
		{
			"sampler":0,
			"source":1
		}
	],
	"images":[
		{
			"mimeType":"image/jpeg",
			"name":"NormalGL_162a6a72-3816-42f3-9786-dc965c9640d4",
			"uri":"textures/NormalGL_162a6a72-3816-42f3-9786-dc965c9640d4.jpg"
		},
		{
			"mimeType":"image/jpeg",
			"name":"Color_162a6a72-3816-42f3-9786-dc965c9640d4",
			"uri":"textures/Color_162a6a72-3816-42f3-9786-dc965c9640d4.jpg"
		}
	],
	"skins":[
		{
			"inverseBindMatrices":6,
			"joints":[
				40,
				39,
				17,
				16,
				3,
				2,
				1,
				0,
				9,
				8,
				7,
				6,
				5,
				4,
				15,
				14,
				13,
				12,
				11,
				10,
				38,
				25,
				24,
				23,
				22,
				21,
				20,
				19,
				18,
				31,
				30,
				29,
				28,
				27,
				26,
				37,
				36,
				35,
				34,
				33,
				32
			],
			"name":"rig"
		}
	],
	"accessors":[
		{
			"bufferView":0,
			"componentType":5126,
			"count":12000,
			"max":[
				14.035234451293945,
				31.07948875427246,
				36.68370819091797
			],
			"min":[
				-14.080196380615234,
				-31.079593658447266,
				-36.679752349853516
			],
			"type":"VEC3"
		},
		{
			"bufferView":1,
			"componentType":5126,
			"count":12000,
			"type":"VEC3"
		},
		{
			"bufferView":2,
			"componentType":5126,
			"count":12000,
			"type":"VEC2"
		},
		{
			"bufferView":3,
			"componentType":5121,
			"count":12000,
			"type":"VEC4"
		},
		{
			"bufferView":4,
			"componentType":5126,
			"count":12000,
			"type":"VEC4"
		},
		{
			"bufferView":5,
			"componentType":5123,
			"count":59544,
			"type":"SCALAR"
		},
		{
			"bufferView":6,
			"componentType":5126,
			"count":41,
			"type":"MAT4"
		}
	],
	"bufferViews":[
		{
			"buffer":0,
			"byteLength":144000,
			"byteOffset":0,
			"target":34962
		},
		{
			"buffer":0,
			"byteLength":144000,
			"byteOffset":144000,
			"target":34962
		},
		{
			"buffer":0,
			"byteLength":96000,
			"byteOffset":288000,
			"target":34962
		},
		{
			"buffer":0,
			"byteLength":48000,
			"byteOffset":384000,
			"target":34962
		},
		{
			"buffer":0,
			"byteLength":192000,
			"byteOffset":432000,
			"target":34962
		},
		{
			"buffer":0,
			"byteLength":119088,
			"byteOffset":624000,
			"target":34963
		},
		{
			"buffer":0,
			"byteLength":2624,
			"byteOffset":743088
		}
	],
	"samplers":[
		{
			"magFilter":9729,
			"minFilter":9987
		}
	],
	"buffers":[
		{
			"byteLength":745712,
			"uri":"Puppy1.bin"
		}
	]
}
