{
  "accessors": [
    {
      "bufferView": 2,
      "componentType": 5126,
      "count": 26573,
      "max": [
        5.328393936157227,
        1.0733067989349365,
        1.527404546737671
      ],
      "min": [
        -5.328408718109131,
        -17.71473503112793,
        -1.75091552734375
      ],
      "type": "VEC3"
    },
    {
      "bufferView": 2,
      "byteOffset": 318876,
      "componentType": 5126,
      "count": 26573,
      "max": [
        0.9999647736549377,
        0.9987894892692566,
        0.9999993443489075
      ],
      "min": [
        -0.9999918341636658,
        -0.999998927116394,
        -0.9999834299087524
      ],
      "type": "VEC3"
    },
    {
      "bufferView": 3,
      "componentType": 5126,
      "count": 26573,
      "max": [
        0.999920129776001,
        0.9999948143959045,
        0.9999940991401672,
        1.0
      ],
      "min": [
        -0.999998152256012,
        -0.9999951124191284,
        -0.9999972581863403,
        -1.0
      ],
      "type": "VEC4"
    },
    {
      "bufferView": 1,
      "componentType": 5126,
      "count": 26573,
      "max": [
        0.9947130084037781,
        0.9849299788475037
      ],
      "min": [
        0.015572999604046345,
        0.009370028972625732
      ],
      "type": "VEC2"
    },
    {
      "bufferView": 1,
      "byteOffset": 212584,
      "componentType": 5126,
      "count": 26573,
      "max": [
        0.9947130084037781,
        0.9849299788475037
      ],
      "min": [
        0.015572999604046345,
        0.009370028972625732
      ],
      "type": "VEC2"
    },
    {
      "bufferView": 0,
      "componentType": 5125,
      "count": 149784,
      "type": "SCALAR"
    },
    {
      "bufferView": 2,
      "byteOffset": 637752,
      "componentType": 5126,
      "count": 27336,
      "max": [
        5.044119358062744,
        -1.3093717098236084,
        1.7395470142364502
      ],
      "min": [
        -5.007193565368652,
        -17.918928146362305,
        -1.89503014087677
      ],
      "type": "VEC3"
    },
    {
      "bufferView": 2,
      "byteOffset": 965784,
      "componentType": 5126,
      "count": 27336,
      "max": [
        0.9999976754188538,
        0.9999899864196777,
        0.9999662041664124
      ],
      "min": [
        -0.9999845623970032,
        -1.0,
        -0.9999961853027344
      ],
      "type": "VEC3"
    },
    {
      "bufferView": 3,
      "byteOffset": 425168,
      "componentType": 5126,
      "count": 27336,
      "max": [
        0.9999908208847046,
        0.9999781847000122,
        0.9999807476997375,
        1.0
      ],
      "min": [
        -0.9999996423721313,
        -0.9999948740005493,
        -0.999852180480957,
        -1.0
      ],
      "type": "VEC4"
    },
    {
      "bufferView": 1,
      "byteOffset": 425168,
      "componentType": 5126,
      "count": 27336,
      "max": [
        0.9798719882965088,
        0.9918239712715149
      ],
      "min": [
        0.04396500065922737,
        0.022414028644561768
      ],
      "type": "VEC2"
    },
    {
      "bufferView": 1,
      "byteOffset": 643856,
      "componentType": 5126,
      "count": 27336,
      "max": [
        0.9798719882965088,
        0.9918239712715149
      ],
      "min": [
        0.04396500065922737,
        0.022414028644561768
      ],
      "type": "VEC2"
    },
    {
      "bufferView": 0,
      "byteOffset": 599136,
      "componentType": 5125,
      "count": 152430,
      "type": "SCALAR"
    }
  ],
  "asset": {
    "extras": {
      "author": "JohnMora (https://sketchfab.com/JohnMora)",
      "license": "SKETCHFAB Standard (https://sketchfab.com/licenses)",
      "source": "https://sketchfab.com/3d-models/persona-formal-53209dc94ac949118b58f66b0fcfba63",
      "title": "Persona Formal"
    },
    "generator": "Sketchfab-16.14.0",
    "version": "2.0"
  },
  "bufferViews": [
    {
      "buffer": 0,
      "byteLength": 1208856,
      "name": "floatBufferViews",
      "target": 34963
    },
    {
      "buffer": 0,
      "byteLength": 862544,
      "byteOffset": 1208856,
      "byteStride": 8,
      "name": "floatBufferViews",
      "target": 34962
    },
    {
      "buffer": 0,
      "byteLength": 1293816,
      "byteOffset": 2071400,
      "byteStride": 12,
      "name": "floatBufferViews",
      "target": 34962
    },
    {
      "buffer": 0,
      "byteLength": 862544,
      "byteOffset": 3365216,
      "byteStride": 16,
      "name": "floatBufferViews",
      "target": 34962
    }
  ],
  "buffers": [
    {
      "byteLength": 4227760,
      "uri": "scene.bin"
    }
  ],
  "images": [
    {
      "uri": "textures/UVMODEL2_baseColor.jpeg"
    },
    {
      "uri": "textures/UVMODEL2_metallicRoughness.png"
    },
    {
      "uri": "textures/UVMODEL2_normal.png"
    },
    {
      "uri": "textures/RopaLowUvs_baseColor.jpeg"
    },
    {
      "uri": "textures/RopaLowUvs_normal.png"
    }
  ],
  "materials": [
    {
      "doubleSided": true,
      "name": "UVMODEL2",
      "normalTexture": {
        "index": 2
      },
      "occlusionTexture": {
        "index": 1
      },
      "pbrMetallicRoughness": {
        "baseColorTexture": {
          "index": 0
        },
        "metallicFactor": 0.0,
        "metallicRoughnessTexture": {
          "index": 1
        }
      }
    },
    {
      "doubleSided": true,
      "name": "RopaLowUvs",
      "normalTexture": {
        "index": 4
      },
      "pbrMetallicRoughness": {
        "baseColorTexture": {
          "index": 3
        },
        "metallicFactor": 0.0
      }
    }
  ],
  "meshes": [
    {
      "name": "UVMODEL2_UVMODEL2_0",
      "primitives": [
        {
          "attributes": {
            "NORMAL": 1,
            "POSITION": 0,
            "TANGENT": 2,
            "TEXCOORD_0": 3,
            "TEXCOORD_1": 4
          },
          "indices": 5,
          "material": 0,
          "mode": 4
        }
      ]
    },
    {
      "name": "RopaLowUvs_RopaLowUvs_0",
      "primitives": [
        {
          "attributes": {
            "NORMAL": 7,
            "POSITION": 6,
            "TANGENT": 8,
            "TEXCOORD_0": 9,
            "TEXCOORD_1": 10
          },
          "indices": 11,
          "material": 1,
          "mode": 4
        }
      ]
    }
  ],
  "nodes": [
    {
      "children": [
        1
      ],
      "matrix": [
        1.0,
        0.0,
        0.0,
        0.0,
        0.0,
        2.220446049250313e-16,
        -1.0,
        0.0,
        0.0,
        1.0,
        2.220446049250313e-16,
        0.0,
        0.0,
        0.0,
        0.0,
        1.0
      ],
      "name": "Sketchfab_model"
    },
    {
      "children": [
        2
      ],
      "matrix": [
        0.009999999776482582,
        0.0,
        0.0,
        0.0,
        0.0,
        0.0,
        0.009999999776482582,
        0.0,
        0.0,
        -0.009999999776482582,
        0.0,
        0.0,
        0.0,
        0.0,
        0.0,
        1.0
      ],
      "name": "d0b2754baf3f4e62b10f36c68a674a56.fbx"
    },
    {
      "children": [
        3,
        5
      ],
      "name": "RootNode"
    },
    {
      "children": [
        4
      ],
      "name": "UVMODEL2"
    },
    {
      "mesh": 0,
      "name": "UVMODEL2_UVMODEL2_0"
    },
    {
      "children": [
        6
      ],
      "name": "RopaLowUvs"
    },
    {
      "mesh": 1,
      "name": "RopaLowUvs_RopaLowUvs_0"
    }
  ],
  "samplers": [
    {
      "magFilter": 9729,
      "minFilter": 9987,
      "wrapS": 10497,
      "wrapT": 10497
    }
  ],
  "scene": 0,
  "scenes": [
    {
      "name": "Sketchfab_Scene",
      "nodes": [
        0
      ]
    }
  ],
  "textures": [
    {
      "sampler": 0,
      "source": 0
    },
    {
      "sampler": 0,
      "source": 1
    },
    {
      "sampler": 0,
      "source": 2
    },
    {
      "sampler": 0,
      "source": 3
    },
    {
      "sampler": 0,
      "source": 4
    }
  ]
}
